<svg xmlns="http://www.w3.org/2000/svg" width="1200" height="630" viewBox="0 0 1200 630" role="img" aria-labelledby="title desc">
  <title id="title">Dexpot social preview</title>
  <desc id="desc">Dexpot builds synchronous Python APIs with adaptive execution for GIL and free-threaded CPython.</desc>
  <defs>
    <radialGradient id="glow" cx="84%" cy="18%" r="70%"><stop offset="0" stop-color="#45c7d2" stop-opacity=".16"/><stop offset="1" stop-color="#070b13" stop-opacity="0"/></radialGradient>
    <pattern id="grid" width="44" height="44" patternUnits="userSpaceOnUse"><path d="M44 0H0V44" fill="none" stroke="#fff" stroke-opacity=".035"/></pattern>
  </defs>
  <rect width="1200" height="630" fill="#070b13"/>
  <rect width="1200" height="630" fill="url(#glow)"/>
  <rect width="1200" height="630" fill="url(#grid)"/>
  <line x1="72" y1="92" x2="1128" y2="92" stroke="#343b48"/>
  <g transform="translate(72 38) scale(.3125)"><rect width="128" height="128" rx="24" fill="#070A12"/><path d="M44 22h10v20c0 5-2.3 9.6-6.2 12.4C34.1 64.3 26 78.2 26 93c0 17 12.7 25 38 25s38-8 38-25c0-14.8-8.1-28.7-21.8-38.6C76.3 51.6 74 47 74 42V22h10" fill="none" stroke="#66D9FF" stroke-width="8" stroke-linecap="round" stroke-linejoin="round"/><path d="M42 78h33m0 0-8-8m8 8-8 8M53 99h33m0 0-8-8m8 8-8 8" fill="none" stroke="#66D9FF" stroke-width="7" stroke-linecap="round" stroke-linejoin="round"/></g>
  <text x="128" y="68" fill="#f4f1ea" font-family="Arial,Helvetica,sans-serif" font-size="25" font-weight="800">dex<tspan fill="#54cbd4">pot</tspan></text>
  <text x="1128" y="66" fill="#54cbd4" text-anchor="end" font-family="Courier New,monospace" font-size="13" font-weight="700" letter-spacing="2">MODEPOT / EXECUTION</text>
  <text x="72" y="230" fill="#f4f1ea" font-family="Arial,Helvetica,sans-serif" font-size="72" font-weight="800" letter-spacing="-3">Plain handlers.</text>
  <text x="72" y="310" fill="#54cbd4" font-family="Arial,Helvetica,sans-serif" font-size="72" font-weight="800" letter-spacing="-3">Adaptive execution.</text>
  <text x="75" y="383" fill="#bcc4cf" font-family="Arial,Helvetica,sans-serif" font-size="27">Synchronous Python APIs for standard GIL and free-threaded CPython.</text>
  <g transform="translate(75 458)">
    <rect width="280" height="62" rx="10" fill="#111824" stroke="#3a4453"/><text x="140" y="39" text-anchor="middle" fill="#f4f1ea" font-family="Courier New,monospace" font-size="19" font-weight="700">STANDARD GIL</text>
    <path d="M292 31H350" stroke="#697587"/><path d="m343 24 8 7-8 7" fill="none" stroke="#697587"/>
    <rect x="362" width="330" height="62" rx="10" fill="#111824" stroke="#3a4453"/><text x="527" y="39" text-anchor="middle" fill="#f4f1ea" font-family="Courier New,monospace" font-size="19" font-weight="700">FREE-THREADED CPYTHON</text>
  </g>
  <text x="1128" y="582" text-anchor="end" fill="#54cbd4" font-family="Courier New,monospace" font-size="20" font-weight="700">dexpot.modepot.io</text>
</svg>
